<?xml version="1.0" encoding="UTF-8" standalone="no"?>
<svg
   version="1.1"
   width="441.8353pt"
   height="45.39706pt"
   viewBox="0 0 441.8353 45.39706"
   id="svg553"
   sodipodi:docname="top_left_header.svg"
   inkscape:version="1.1 (c68e22c387, 2021-05-23)"
   xmlns:inkscape="http://www.inkscape.org/namespaces/inkscape"
   xmlns:sodipodi="http://sodipodi.sourceforge.net/DTD/sodipodi-0.dtd"
   xmlns="http://www.w3.org/2000/svg"
   xmlns:svg="http://www.w3.org/2000/svg">
  <defs
     id="defs557" />
  <sodipodi:namedview
     id="namedview555"
     pagecolor="#ffffff"
     bordercolor="#666666"
     borderopacity="1.0"
     inkscape:pageshadow="2"
     inkscape:pageopacity="0.0"
     inkscape:pagecheckerboard="0"
     inkscape:document-units="pt"
     showgrid="false"
     inkscape:zoom="0.50980392"
     inkscape:cx="390.34615"
     inkscape:cy="165.75"
     inkscape:window-width="1920"
     inkscape:window-height="1017"
     inkscape:window-x="1272"
     inkscape:window-y="-8"
     inkscape:window-maximized="1"
     inkscape:current-layer="svg553" />
  <g
     id="Layer-1"
     data-name="Layer 1"
     transform="translate(-102.4707,-488.00223)">
    <g
       clip-path="url(#cp0)"
       id="g548">
      <path
         transform="matrix(1,0,0,-1,148.0981,532.1235)"
         d="M 0,0 -4.137,6.004 C -9.423,5.475 -14.309,5.104 -18.915,4.825 L -16.224,0 Z"
         fill="#ed272d"
         id="path462" />
      <path
         transform="matrix(1,0,0,-1,199.3398,516.7979)"
         d="m 0,0 c 0.551,-0.487 0.972,-0.936 1.265,-1.346 0.296,-0.409 0.496,-0.779 0.601,-1.106 0.105,-0.325 0.159,-0.667 0.159,-1.026 0,-1.054 -0.544,-1.85 -1.634,-2.386 -1.084,-0.535 -2.549,-0.806 -4.381,-0.806 -1.391,0 -3.166,0.155 -5.014,0.566 -1.849,0.412 -3.796,1.194 -6.162,2.248 0.36,-2.699 0.674,-6.289 0.949,-10.777 5.202,-0.989 9.511,-1.484 12.925,-1.484 2.209,0 4.31,0.221 6.303,0.663 1.99,0.443 3.817,1.218 5.482,2.322 1.663,1.108 2.949,2.52 3.855,4.236 0.905,1.716 1.358,3.521 1.358,5.418 0,0.737 -0.073,1.429 -0.221,2.069 -0.148,0.643 -0.374,1.279 -0.68,1.913 C 14.499,1.135 14.062,1.83 13.493,2.587 12.926,3.345 12.251,4.115 11.473,4.896 11.43,4.937 11.389,4.978 11.347,5.02 7.271,3.515 3.13,2.148 -1.045,0.909 Z"
         fill="#00a754"
         id="path464" />
      <path
         transform="matrix(1,0,0,-1,235.1992,511.94429)"
         d="M 0,0 2.27,4.668 C 3.236,6.646 4.412,9.18 5.802,12.269 6.036,11.51 7.373,7.422 9.811,0 Z M 14.662,21.88 C 7.064,15.042 1.315,11.698 -9.316,6.661 l -12.529,-23.567 -2.622,-4.549 c 3.559,0.042 6.147,0.064 7.753,0.064 0.883,0 3.284,-0.022 7.208,-0.064 1.952,4.466 3.851,8.552 5.681,12.259 H 12.08 c 1.751,-4.699 3.085,-8.783 4.006,-12.259 3.441,0.042 6.042,0.064 7.81,0.064 0.785,0 2.997,-0.022 6.647,-0.064 l -1.832,4.613 -9.069,25.371 -4.977,13.351 z"
         fill="#0069b4"
         id="path466" />
      <path
         transform="matrix(1,0,0,-1,116.5547,532.1304)"
         d="M 0,0 0.078,2.042 H 0.081 L 0.167,4.267 C -6.044,4.092 -10.834,4.113 -13.681,4.159 -13.799,2.867 -13.933,1.483 -14.084,0 Z"
         fill="#ed272d"
         id="path468" />
      <path
         transform="matrix(1,0,0,-1,163.9565,532.1304)"
         d="M 0,0 V 1.39 L 0.033,5.624 0.119,8.603 C -4.558,7.856 -9.136,7.231 -13.56,6.711 -13.726,4.768 -13.939,2.534 -14.199,0 Z"
         fill="#fdb920"
         id="path470" />
      <path
         transform="matrix(1,0,0,-1,143.9761,526.1157)"
         d="m 0,0 -11.405,17.057 2.474,3.358 13.338,16.826 c -0.014,0 -0.026,0 -0.04,-10e-4 l 0.04,0.051 c -4.654,-0.042 -7.172,-0.064 -7.552,-0.064 -1.389,0 -4.045,0.022 -7.962,0.064 l -1.771,-2.715 -5.717,-8.022 -7.08,-9.626 c 0.006,-0.011 0.012,-0.018 0.016,-0.026 l -0.016,-0.024 c 4.57,-7.343 8.189,-13.363 10.869,-18.073 4.577,0.277 9.543,0.661 14.791,1.186 z"
         fill="#2c292a"
         id="path472" />
      <path
         transform="matrix(1,0,0,-1,210.6768,511.76423)"
         d="m 0,0 c -0.781,0.78 -1.507,1.443 -2.183,1.991 l -2.272,1.801 c -1.624,1.264 -2.812,2.217 -3.573,2.86 -0.758,0.642 -1.368,1.233 -1.833,1.769 -0.464,0.536 -0.779,1.005 -0.945,1.407 -0.164,0.388 -0.249,0.789 -0.252,1.199 0.008,0.9 0.549,1.651 1.623,2.258 1.085,0.61 2.45,0.915 4.093,0.915 1.158,0 2.539,-0.152 4.138,-0.456 1.604,-0.306 3.371,-0.849 5.311,-1.628 -0.002,0.018 -0.003,0.034 -0.005,0.05 0.002,0 0.003,0 0.005,0 -0.318,3.032 -0.516,5.155 -0.602,6.365 -0.085,1.212 -0.158,2.544 -0.22,3.997 -4.192,0.824 -8.07,1.234 -11.63,1.234 -1.81,0 -3.57,-0.144 -5.274,-0.427 -1.706,-0.285 -3.311,-0.815 -4.804,-1.597 -1.496,-0.779 -2.696,-1.706 -3.602,-2.779 -0.908,-1.077 -1.586,-2.23 -2.039,-3.462 -0.453,-1.232 -0.677,-2.49 -0.677,-3.775 v -0.019 -0.032 c 0,-1.071 0.141,-2.088 0.425,-3.046 0.287,-0.958 0.741,-1.901 1.365,-2.829 0.62,-0.927 1.494,-1.928 2.61,-3.002 0.548,-0.525 1.517,-1.38 2.912,-2.56 l 3.431,-2.984 c 0.014,0.004 0.028,0.009 0.041,0.013 l 1.593,-1.385 C -8.242,-2.893 -4.021,-1.485 0.003,0 Z"
         fill="#2c292a"
         id="path474" />
      <path
         transform="matrix(1,0,0,-1,233.5571,490.0625)"
         d="M 0,0 H 16.304 V -0.002 C 6.784,-8.479 1.412,-11.087 -7.682,-15.225 v -0.003 l 7.651,15.142 z"
         fill="#2c292a"
         id="path476" />
      <path
         transform="matrix(1,0,0,-1,102.8735,527.9775)"
         d="m 0,0 c 2.845,-0.045 7.631,-0.067 13.84,0.108 l 0.598,15.392 1.494,23.603 h -0.003 l 0.003,0.049 C 12.27,39.11 9.999,39.088 9.113,39.088 c -1.321,0 -3.741,0.022 -7.26,0.064 V 39.103 36.435 C 1.853,34.159 1.725,30.242 1.473,24.681 1.113,16.698 0.357,4.785 0.04,0.193 Z"
         fill="#2c292a"
         id="path478" />
      <path
         transform="matrix(1,0,0,-1,150.3818,525.4253)"
         d="m 0,0 c 4.423,0.521 8.998,1.146 13.674,1.89 l 0.034,1.225 h 0.003 l 0.214,7.306 c 3.276,0.105 6.307,0.157 9.078,0.157 1.643,0 4.156,-0.052 7.542,-0.157 0,2.254 0.114,5.371 0.347,9.352 H 30.89 c 0,0.016 0,0.032 0.002,0.049 -3.033,-0.063 -5.288,-0.094 -6.761,-0.094 h -5.119 l -4.58,0.094 0.281,7.313 c 3.476,0.042 5.571,0.063 6.289,0.063 h 6.225 l 2.211,-0.032 2.211,-0.031 2.749,-0.094 c 0,1.496 0.17,4.666 0.506,9.51 H 34.9 c 0,0.016 0.002,0.031 0.004,0.049 C 29.828,36.558 24.542,36.536 19.043,36.536 13.586,36.536 7.686,36.558 1.35,36.6 V 36.551 33.125 C 1.35,30.809 1.231,26.293 1.002,19.586 0.768,12.878 0.299,3.814 0.047,-0.02 Z"
         fill="#2c292a"
         id="path480" />
      <path
         transform="matrix(1,0,0,-1,289.4805,512.2266)"
         d="m 0,0 c -1.218,1.299 -1.827,3.159 -1.827,5.582 v 4.636 H -4.991 V 5.582 c 0,-2.423 -0.594,-4.328 -1.783,-5.716 -1.189,-1.388 -2.354,-2.388 -3.498,-2.998 l 2.206,-1.938 c 0.758,0.43 1.619,1.114 2.585,2.05 0.965,0.936 1.671,1.938 2.117,3.009 0.549,-1.071 1.3,-2.032 2.25,-2.886 0.951,-0.855 1.836,-1.512 2.653,-1.974 l 1.782,2.096 C 2.326,-2.226 1.219,-1.301 0,0"
         fill="#2c292a"
         id="path482" />
      <path
         transform="matrix(1,0,0,-1,296.9912,501.10249)"
         d="M 0,0 H -2.986 V -19.353 H 0 v 8.836 H 2.786 V -7.71 H 0 Z"
         fill="#2c292a"
         id="path484" />
      <path
         transform="matrix(1,0,0,-1,314.2622,509.65724)"
         d="m 0,0 h -8.869 v 5.067 h 7.242 V 7.652 H -11.833 V -2.585 H 0 Z"
         fill="#2c292a"
         id="path486" />
      <path
         transform="matrix(1,0,0,-1,307.5547,513.8418)"
         d="m 0,0 h -3.008 v -6.636 h 14.617 v 2.563 H 0 Z"
         fill="#2c292a"
         id="path488" />
      <path
         transform="matrix(1,0,0,-1,318.5859,501.10249)"
         d="M 0,0 H -2.965 V -14.173 H 0 v 5.883 h 2.674 v 2.609 H 0 Z"
         fill="#2c292a"
         id="path490" />
      <path
         transform="matrix(1,0,0,-1,0,1224)"
         d="m 331.621,715.299 h -4.234 v 1.91807 h 4.234 z m 6.619,3.767 h -3.677 v 3.141 h -2.942 v -2.472 h -4.234 v 2.472 h -2.963 v -9.426 h 10.139 v 3.722 h 3.677 v -4.146 h 2.965 v 10.54 h -2.965 z"
         fill="#2c292a"
         id="path492" />
      <path
         transform="matrix(1,0,0,-1,0,1224)"
         d="m 338.151,705.966 h -8.468 v 1.493 h 8.468 z m 0,3.878 h -8.468 v 1.693 h -2.987 v -7.999 h 14.441 v 7.999 h -2.986 z"
         fill="#2c292a"
         id="path494" />
      <path
         transform="matrix(1,0,0,-1,0,1224)"
         d="m 363.265,722.897 h -2.963 v -14.15003 h 2.963 z"
         fill="#2c292a"
         id="path496" />
      <path
         transform="matrix(1,0,0,-1,351.7671,513.9453)"
         d="m 0,0 h -3.031 v -6.507 h 15.065 v 2.563 H 0 Z"
         fill="#2c292a"
         id="path498" />
      <path
         transform="matrix(1,0,0,-1,412.9297,501.68074)"
         d="M 0,0 H -15.256 V -2.563 H -3.32 v -4.259 h -13.987 v -2.493 h 7.778 v -2.509 h -6.045 v -2.563 h 12.462 v -4.387 h 3.031 v 6.95 h -6.284 v 2.509 h 8.669 v 2.449 H 0 Z"
         fill="#2c292a"
         id="path500" />
      <path
         transform="matrix(1,0,0,-1,0,1224)"
         d="m 432.615,711.356 h 2.98499 v 11.52006 H 432.615 Z"
         fill="#2c292a"
         id="path502" />
      <path
         transform="matrix(1,0,0,-1,423.9688,508.2544)"
         d="m 0,0 c 0.608,-0.862 1.352,-1.609 2.229,-2.239 0.875,-0.634 1.73,-1.126 2.562,-1.484 l 1.805,2.185 C 5.423,-1.167 4.297,-0.447 3.22,0.623 2.144,1.693 1.604,2.836 1.604,4.056 V 6.685 H -1.583 V 4.056 c 0,-1.22 -0.526,-2.415 -1.581,-3.588 C -4.22,-0.707 -5.4,-1.576 -6.708,-2.14 l 2.141,-2.028 c 0.92,0.49 1.792,1.092 2.617,1.805 C -1.126,-1.65 -0.476,-0.862 0,0"
         fill="#2c292a"
         id="path504" />
      <path
         transform="matrix(1,0,0,-1,420.626,516.0986)"
         d="m 0,0 h 11.899 v -4.37 h 2.987 V 2.563 H 0 Z"
         fill="#2c292a"
         id="path506" />
      <path
         transform="matrix(1,0,0,-1,0,1224)"
         d="m 451.134,717.595 h -4.502 v 2.385 h 4.502 z m 5.839,0 h -2.865 v 2.384 h 2.418 v 2.452 h -15.287 v -2.452 h 2.418 v -2.384 h -2.863 v -2.474 h 16.179 z"
         fill="#2c292a"
         id="path508" />
      <path
         transform="matrix(1,0,0,-1,0,1224)"
         d="m 453.273,706.099 h -8.78 v 1.467 h 8.78 z m -14.195,5.412 h 8.178 v -1.404 h -5.794 v -6.571 h 14.842 v 6.571 h -5.817 v 1.404 h 8.201 v 2.519 h -19.61 z"
         fill="#2c292a"
         id="path510" />
      <path
         transform="matrix(1,0,0,-1,478.1426,501.10249)"
         d="M 0,0 H -2.964 V -14.106 H 0 v 6.218 h 2.652 v 2.741 H 0 Z"
         fill="#2c292a"
         id="path512" />
      <path
         transform="matrix(1,0,0,-1,467.1113,513.7817)"
         d="m 0,0 h -3.007 v -6.695 h 14.662 v 2.564 H 0 Z"
         fill="#2c292a"
         id="path514" />
      <path
         transform="matrix(1,0,0,-1,489.4629,509.4146)"
         d="M 0,0 C 0.49,-0.742 1.219,-1.415 2.185,-2.016 3.149,-2.618 3.907,-3 4.457,-3.163 l 1.627,2.295 C 4.939,-0.468 3.896,0.12 2.953,0.892 2.01,1.665 1.538,2.719 1.538,4.056 V 4.658 H 5.237 V 7.221 H -5.258 V 4.658 H -1.56 V 4.056 c 0,-1.425 -0.571,-2.607 -1.715,-3.543 -1.145,-0.935 -2.244,-1.537 -3.299,-1.805 l 1.872,-2.273 c 0.981,0.342 1.921,0.85 2.819,1.527 0.9,0.676 1.527,1.355 1.883,2.038"
         fill="#2c292a"
         id="path516" />
      <path
         transform="matrix(1,0,0,-1,489.6631,513.8262)"
         d="m 0,0 h -2.985 v -6.65 h 14.953 v 2.563 H 0 Z"
         fill="#2c292a"
         id="path518" />
      <path
         transform="matrix(1,0,0,-1,498.2207,515.2754)"
         d="M 0,0 H 2.986 V 14.173 H 0 V 9.717 H -3.432 V 7.043 H 0 Z"
         fill="#2c292a"
         id="path520" />
      <path
         transform="matrix(1,0,0,-1,0,1224)"
         d="m 383.901,723.077 h -6.663 v -2.229 h 6.663 z"
         fill="#2c292a"
         id="path522" />
      <path
         transform="matrix(1,0,0,-1,391.2554,501.10249)"
         d="M 0,0 H -2.987 V -14.373 H 0 v 5.905 h 2.607 v 2.674 H 0 Z"
         fill="#2c292a"
         id="path524" />
      <path
         transform="matrix(1,0,0,-1,380.313,515.063)"
         d="m 0,0 h -3.208 v -5.415 h 14.751 v 2.451 H 0 Z"
         fill="#2c292a"
         id="path526" />
      <path
         transform="matrix(1,0,0,-1,378.1919,509.24324)"
         d="M 0,0 C 0,1.473 1.107,2.665 2.474,2.665 3.841,2.665 4.949,1.473 4.949,0 4.949,-1.471 3.841,-2.662 2.474,-2.662 1.107,-2.662 0,-1.471 0,0 m 7.906,0.017 c 0,1.043 -0.332,2.012 -0.898,2.821 H 8.605 V 5.155 H -3.783 V 2.838 h 1.751 C -2.598,2.029 -2.93,1.06 -2.93,0.017 c 0,-2.829 2.426,-5.12 5.418,-5.12 2.992,0 5.418,2.291 5.418,5.12"
         fill="#2c292a"
         id="path528" />
      <path
         transform="matrix(1,0,0,-1,464.2295,506.87739)"
         d="M 0,0 C 0,1.459 1.214,2.643 2.714,2.643 4.213,2.643 5.428,1.459 5.428,0 5.428,-1.461 4.213,-2.644 2.714,-2.644 1.214,-2.644 0,-1.461 0,0 m 8.437,0.017 c 0,2.98 -2.556,5.395 -5.708,5.395 -3.155,0 -5.709,-2.415 -5.709,-5.395 0,-2.98 2.554,-5.395 5.709,-5.395 3.152,0 5.708,2.415 5.708,5.395"
         fill="#2c292a"
         id="path530" />
      <path
         transform="matrix(1,0,0,-1,0,1224)"
         d="m 513.642,723.077 h -6.41695 v -2.14 h 6.41695 z"
         fill="#2c292a"
         id="path532" />
      <path
         transform="matrix(1,0,0,-1,0,1224)"
         d="m 519.125,705.81 h -8.447 v 1.312 h 8.447 z m 0,3.517 h -8.447 v 1.382 h -3.097 v -7.173 h 14.641 v 7.173 h -3.097 z"
         fill="#2c292a"
         id="path534" />
      <path
         transform="matrix(1,0,0,-1,519.3252,504.7339)"
         d="M 0,0 H -2.607 V -2.452 H 0 V -3.989 H -2.611 V -6.418 H 0 V -7.711 H 2.964 V 3.631 H 0 Z"
         fill="#2c292a"
         id="path536" />
      <path
         transform="matrix(1,0,0,-1,508.4453,508.29054)"
         d="M 0,0 C 0,1.056 0.93,1.909 2.076,1.909 3.223,1.909 4.153,1.056 4.153,0 4.153,-1.054 3.223,-1.907 2.076,-1.907 0.93,-1.907 0,-1.054 0,0 m 6.885,0.016 c 0,0.791 -0.253,1.522 -0.665,2.158 H 8.071 V 4.359 H -4.052 V 2.174 H -2.04 C -2.453,1.538 -2.706,0.807 -2.706,0.016 c 0,-2.384 2.147,-4.316 4.796,-4.316 2.648,0 4.795,1.932 4.795,4.316"
         fill="#2c292a"
         id="path538" />
      <path
         transform="matrix(1,0,0,-1,0,1224)"
         d="m 536.818,722.475 h -6.508 v -2.27301 h 6.508 z"
         fill="#2c292a"
         id="path540" />
      <path
         transform="matrix(1,0,0,-1,0,1224)"
         d="m 541.342,703.524 h 2.96399 v 19.373 H 541.342 Z"
         fill="#2c292a"
         id="path542" />
      <path
         transform="matrix(1,0,0,-1,533.7236,511.79249)"
         d="M 0,0 C -1.204,0 -2.182,0.991 -2.182,2.209 -2.182,3.431 -1.204,4.42 0,4.42 1.203,4.42 2.18,3.431 2.18,2.209 2.18,0.991 1.203,0 0,0 m 1.601,-2.276 c 2.002,0.628 3.446,2.403 3.446,4.503 0,0.877 -0.257,1.697 -0.697,2.402 H 5.88 V 6.992 H -6.153 V 4.629 h 1.828 C -4.766,3.924 -5.022,3.104 -5.022,2.227 c 0,-2.097 1.44,-3.871 3.437,-4.5 v -1.41 H -7.134 V -6.29 H 6.913 l 0.014,0.012 v 2.852 H 1.601 Z"
         fill="#2c292a"
         id="path544" />
      <path
         transform="matrix(1,0,0,-1,348.7817,506.91413)"
         d="M 0,0 C 0,1.468 1.233,2.656 2.755,2.656 4.276,2.656 5.509,1.468 5.509,0 5.509,-1.468 4.276,-2.656 2.755,-2.656 1.233,-2.656 0,-1.468 0,0 m 8.505,0.018 c 0,2.993 -2.568,5.421 -5.736,5.421 -3.168,0 -5.736,-2.428 -5.736,-5.421 0,-2.995 2.568,-5.421 5.736,-5.421 3.168,0 5.736,2.426 5.736,5.421"
         fill="#2c292a"
         id="path546" />
    </g>
  </g>
</svg>
