<?xml version="1.0" encoding="UTF-8" standalone="no"?>
<svg
   version="1.1"
   width="335.51941pt"
   height="45.396629pt"
   viewBox="0 0 335.51941 45.396629"
   id="svg145"
   sodipodi:docname="footer.svg"
   inkscape:version="1.1 (c68e22c387, 2021-05-23)"
   xmlns:inkscape="http://www.inkscape.org/namespaces/inkscape"
   xmlns:sodipodi="http://sodipodi.sourceforge.net/DTD/sodipodi-0.dtd"
   xmlns="http://www.w3.org/2000/svg"
   xmlns:svg="http://www.w3.org/2000/svg">
  <defs
     id="defs149" />
  <sodipodi:namedview
     id="namedview147"
     pagecolor="#ffffff"
     bordercolor="#666666"
     borderopacity="1.0"
     inkscape:pageshadow="2"
     inkscape:pageopacity="0.0"
     inkscape:pagecheckerboard="0"
     inkscape:document-units="pt"
     showgrid="false"
     inkscape:zoom="0.50980392"
     inkscape:cx="390.34615"
     inkscape:cy="-255.98077"
     inkscape:window-width="1920"
     inkscape:window-height="1017"
     inkscape:window-x="1272"
     inkscape:window-y="-8"
     inkscape:window-maximized="1"
     inkscape:current-layer="svg145" />
  <g
     clip-path="url(#cp0)"
     id="g140"
     transform="translate(-102.4707,-804.46947)">
    <path
       transform="matrix(1,0,0,-1,148.0981,848.5918)"
       d="M 0,0 -4.137,6.007 C -9.423,5.475 -14.309,5.104 -18.915,4.826 L -16.224,0 Z"
       fill="#ed272d"
       id="path2" />
    <path
       transform="matrix(1,0,0,-1,199.3398,833.2656)"
       d="m 0,0 c 0.551,-0.486 0.972,-0.936 1.265,-1.347 0.296,-0.408 0.496,-0.778 0.601,-1.102 0.105,-0.327 0.159,-0.669 0.159,-1.029 0,-1.053 -0.544,-1.849 -1.634,-2.386 -1.084,-0.535 -2.549,-0.804 -4.381,-0.804 -1.391,0 -3.166,0.153 -5.014,0.564 -1.849,0.413 -3.796,1.193 -6.162,2.249 0.36,-2.699 0.674,-6.291 0.949,-10.778 5.202,-0.987 9.511,-1.483 12.925,-1.483 2.209,0 4.31,0.222 6.303,0.664 1.99,0.442 3.817,1.216 5.482,2.321 1.663,1.107 2.949,2.52 3.855,4.235 0.905,1.716 1.358,3.521 1.358,5.418 0,0.738 -0.073,1.428 -0.221,2.07 -0.148,0.643 -0.374,1.278 -0.68,1.913 C 14.499,1.136 14.062,1.83 13.493,2.587 12.926,3.348 12.251,4.116 11.473,4.896 11.43,4.938 11.389,4.979 11.347,5.021 7.271,3.516 3.13,2.148 -1.045,0.908 Z"
       fill="#00a754"
       id="path4" />
    <path
       transform="matrix(1,0,0,-1,235.1992,828.4121)"
       d="M 0,0 2.27,4.67 C 3.236,6.647 4.412,9.179 5.802,12.271 6.036,11.511 7.373,7.422 9.811,0 Z M 14.662,21.881 C 7.064,15.042 1.315,11.697 -9.316,6.661 l -12.529,-23.566 -2.622,-4.549 c 3.559,0.043 6.147,0.063 7.753,0.063 0.883,0 3.284,-0.02 7.208,-0.063 1.952,4.467 3.851,8.552 5.681,12.259 H 12.08 c 1.751,-4.7 3.085,-8.783 4.006,-12.259 3.441,0.043 6.042,0.063 7.81,0.063 0.785,0 2.997,-0.02 6.647,-0.063 l -1.832,4.614 -9.069,25.369 -4.977,13.352 z"
       fill="#0069b4"
       id="path6" />
    <path
       transform="matrix(1,0,0,-1,116.5547,848.59866)"
       d="M 0,0 0.078,2.043 H 0.081 L 0.167,4.269 C -6.044,4.094 -10.834,4.114 -13.681,4.16 -13.799,2.867 -13.933,1.485 -14.084,0 Z"
       fill="#ed272d"
       id="path8" />
    <path
       transform="matrix(1,0,0,-1,163.9565,848.59866)"
       d="M 0,0 V 1.391 L 0.033,5.625 0.119,8.604 C -4.558,7.857 -9.136,7.231 -13.56,6.711 -13.726,4.77 -13.939,2.532 -14.199,0 Z"
       fill="#fdb920"
       id="path10" />
    <path
       transform="matrix(1,0,0,-1,143.9761,842.584)"
       d="m 0,0 -11.405,17.058 2.474,3.357 13.338,16.826 h -0.04 l 0.04,0.048 c -4.654,-0.039 -7.172,-0.061 -7.552,-0.061 -1.389,0 -4.045,0.022 -7.962,0.061 l -1.771,-2.711 -5.717,-8.023 -7.08,-9.626 c 0.006,-0.01 0.012,-0.019 0.016,-0.026 l -0.016,-0.025 c 4.57,-7.343 8.189,-13.362 10.869,-18.073 4.577,0.278 9.543,0.662 14.791,1.187 z"
       fill="#2c292a"
       id="path12" />
    <path
       transform="matrix(1,0,0,-1,210.6768,828.23147)"
       d="m 0,0 c -0.781,0.78 -1.507,1.442 -2.183,1.991 l -2.272,1.8 c -1.624,1.265 -2.812,2.219 -3.573,2.862 -0.758,0.64 -1.368,1.232 -1.833,1.769 -0.464,0.535 -0.779,1.004 -0.945,1.406 -0.164,0.389 -0.249,0.788 -0.252,1.201 0.008,0.897 0.549,1.649 1.623,2.255 1.085,0.609 2.45,0.916 4.093,0.916 1.158,0 2.539,-0.152 4.138,-0.456 1.604,-0.306 3.371,-0.848 5.311,-1.629 -0.002,0.018 -0.003,0.036 -0.005,0.052 0.002,0 0.003,0 0.005,-0.002 -0.318,3.031 -0.516,5.156 -0.602,6.367 -0.085,1.209 -0.158,2.544 -0.22,3.996 -4.192,0.823 -8.07,1.234 -11.63,1.234 -1.81,0 -3.57,-0.144 -5.274,-0.428 -1.706,-0.286 -3.311,-0.814 -4.804,-1.595 -1.496,-0.779 -2.696,-1.707 -3.602,-2.781 -0.908,-1.076 -1.586,-2.229 -2.039,-3.463 -0.453,-1.229 -0.677,-2.487 -0.677,-3.773 v -0.021 -0.029 c 0,-1.072 0.141,-2.09 0.425,-3.046 0.287,-0.96 0.741,-1.902 1.365,-2.83 0.62,-0.927 1.494,-1.928 2.61,-3.002 0.548,-0.525 1.517,-1.381 2.912,-2.56 l 3.431,-2.983 c 0.014,0.004 0.028,0.009 0.041,0.013 l 1.593,-1.385 C -8.242,-2.895 -4.021,-1.484 0.003,0 Z"
       fill="#2c292a"
       id="path14" />
    <path
       transform="matrix(1,0,0,-1,233.5571,806.5293)"
       d="M 0,0 H 16.304 V -0.002 C 6.784,-8.479 1.412,-11.087 -7.682,-15.226 v -0.003 l 7.651,15.143 z"
       fill="#2c292a"
       id="path16" />
    <path
       transform="matrix(1,0,0,-1,102.8735,844.4453)"
       d="m 0,0 c 2.845,-0.044 7.631,-0.064 13.84,0.109 l 0.598,15.392 1.494,23.602 h -0.003 l 0.003,0.047 C 12.27,39.111 9.999,39.089 9.113,39.089 c -1.321,0 -3.741,0.022 -7.26,0.061 V 39.103 36.435 C 1.853,34.159 1.725,30.243 1.473,24.682 1.113,16.698 0.357,4.785 0.04,0.193 Z"
       fill="#2c292a"
       id="path18" />
    <path
       transform="matrix(1,0,0,-1,150.3818,841.89456)"
       d="m 0,0 c 4.423,0.523 8.998,1.148 13.674,1.891 l 0.034,1.226 h 0.003 l 0.214,7.307 c 3.276,0.103 6.307,0.157 9.078,0.157 1.643,0 4.156,-0.054 7.542,-0.157 0,2.254 0.114,5.369 0.347,9.351 H 30.89 c 0,0.016 0,0.032 0.002,0.048 -3.033,-0.061 -5.288,-0.094 -6.761,-0.094 h -5.119 l -4.58,0.094 0.281,7.314 c 3.476,0.043 5.571,0.063 6.289,0.063 h 6.225 l 2.211,-0.031 2.211,-0.032 2.749,-0.096 c 0,1.497 0.17,4.667 0.506,9.511 H 34.9 c 0,0.017 0.002,0.033 0.004,0.048 C 29.828,36.561 24.542,36.538 19.043,36.538 13.586,36.538 7.686,36.561 1.35,36.6 V 36.552 33.126 C 1.35,30.81 1.231,26.295 1.002,19.589 0.768,12.878 0.299,3.816 0.047,-0.017 Z"
       fill="#2c292a"
       id="path20" />
    <path
       transform="matrix(1,0,0,-1,281.4243,841.042)"
       d="m 0,0 h -0.816 -0.82 V 7.99 H -0.82 0 V 4.315 H 0.003 L 1.757,7.99 H 2.623 3.494 L 1.755,4.473 3.521,0 H 2.633 1.745 L -0.001,4.315 H 0 Z"
       fill="#2c292a"
       id="path22" />
    <path
       transform="matrix(1,0,0,-1,289.0508,839.6426)"
       d="M 0,0 C 0.125,0.212 0.188,0.586 0.188,1.127 V 4.415 C 0.188,4.774 0.115,5.048 -0.03,5.229 -0.175,5.417 -0.389,5.51 -0.667,5.51 -0.948,5.51 -1.158,5.417 -1.301,5.229 -1.444,5.048 -1.516,4.774 -1.516,4.415 V 1.127 c 0,-0.541 0.061,-0.915 0.186,-1.127 0.125,-0.209 0.345,-0.317 0.663,-0.317 0.321,0 0.542,0.108 0.667,0.317 m -2.593,-0.903 c -0.374,0.405 -0.56,1.106 -0.56,2.098 v 3.29 c 0,0.744 0.206,1.3 0.621,1.667 0.413,0.373 1.035,0.559 1.865,0.559 0.83,0 1.454,-0.186 1.868,-0.559 C 1.616,5.785 1.824,5.229 1.824,4.485 v -3.29 c 0,-0.992 -0.188,-1.693 -0.561,-2.098 -0.373,-0.411 -1.018,-0.615 -1.93,-0.615 -0.91,0 -1.553,0.204 -1.926,0.615"
       fill="#2c292a"
       id="path24" />
    <path
       transform="matrix(1,0,0,-1,293.9155,836.55569)"
       d="M 0,0 H 0.452 C 0.876,0 1.157,0.077 1.299,0.234 1.44,0.389 1.511,0.702 1.511,1.171 1.511,1.61 1.436,1.906 1.288,2.065 1.139,2.225 0.86,2.305 0.452,2.305 H 0 Z m -1.638,3.504 h 0.817 1.585 C 1.621,3.504 2.233,3.343 2.599,3.028 2.965,2.712 3.148,2.18 3.148,1.433 3.148,0.585 2.963,0.016 2.592,-0.278 2.408,-0.426 2.124,-0.542 1.737,-0.622 h 0.092 c 0.445,0 0.782,-0.148 1.01,-0.441 C 3.067,-1.354 3.168,-1.775 3.143,-2.315 3.13,-2.627 3.126,-2.949 3.13,-3.286 3.139,-3.633 3.15,-3.896 3.165,-4.074 3.181,-4.254 3.203,-4.39 3.232,-4.479 H 2.417 1.602 c -0.026,0.088 -0.045,0.216 -0.057,0.394 -0.01,0.178 -0.017,0.445 -0.017,0.799 v 0.971 c 0.008,0.399 -0.069,0.68 -0.225,0.844 -0.161,0.164 -0.435,0.248 -0.828,0.248 H 0 v -3.263 h -0.816 -0.822 z"
       fill="#2c292a"
       id="path26" />
    <path
       transform="matrix(1,0,0,-1,298.3481,841.042)"
       d="M 0,0 V 7.99 H 3.992 V 7.395 6.8 H 1.637 V 4.69 H 3.913 V 4.095 3.501 H 1.637 V 1.19 h 2.4 V 0.595 0 Z"
       fill="#2c292a"
       id="path28" />
    <path
       transform="matrix(1,0,0,-1,305.5005,838.126)"
       d="M 0,0 H 1.312 L 0.664,3.579 H 0.66 Z m -0.313,5.074 h 0.958 0.962 l 1.812,-7.99 H 2.632 1.839 l -0.316,1.728 h -1.74 l -0.327,-1.728 h -0.789 -0.792 z"
       fill="#2c292a"
       id="path30" />
    <path
       transform="matrix(1,0,0,-1,312.6621,841.042)"
       d="M 0,0 V 7.99 H 3.828 V 7.395 6.8 H 1.637 V 4.627 H 3.709 V 4.031 3.438 H 1.637 V 0 H 0.821 Z"
       fill="#2c292a"
       id="path32" />
    <path
       transform="matrix(1,0,0,-1,320.9058,839.6426)"
       d="m 0,0 c 0.126,0.212 0.188,0.586 0.188,1.127 v 3.288 c 0,0.359 -0.074,0.633 -0.219,0.814 C -0.176,5.417 -0.389,5.51 -0.667,5.51 -0.948,5.51 -1.157,5.417 -1.303,5.229 -1.444,5.048 -1.516,4.774 -1.516,4.415 V 1.127 c 0,-0.541 0.061,-0.915 0.185,-1.127 0.124,-0.209 0.345,-0.317 0.664,-0.317 0.32,0 0.542,0.108 0.667,0.317 m -2.593,-0.903 c -0.375,0.405 -0.56,1.106 -0.56,2.098 v 3.29 c 0,0.744 0.206,1.3 0.619,1.667 0.413,0.373 1.035,0.559 1.867,0.559 0.83,0 1.453,-0.186 1.868,-0.559 C 1.616,5.785 1.823,5.229 1.823,4.485 v -3.29 c 0,-0.992 -0.187,-1.693 -0.56,-2.098 -0.374,-0.411 -1.017,-0.615 -1.93,-0.615 -0.911,0 -1.553,0.204 -1.926,0.615"
       fill="#2c292a"
       id="path34" />
    <path
       transform="matrix(1,0,0,-1,327.3208,839.6426)"
       d="m 0,0 c 0.125,0.212 0.188,0.586 0.188,1.127 v 3.288 c 0,0.359 -0.073,0.633 -0.219,0.814 C -0.175,5.417 -0.388,5.51 -0.668,5.51 -0.947,5.51 -1.159,5.417 -1.302,5.229 -1.445,5.048 -1.517,4.774 -1.517,4.415 V 1.127 c 0,-0.541 0.062,-0.915 0.187,-1.127 0.125,-0.209 0.346,-0.317 0.662,-0.317 0.32,0 0.543,0.108 0.668,0.317 m -2.592,-0.903 c -0.374,0.405 -0.561,1.106 -0.561,2.098 v 3.29 c 0,0.744 0.206,1.3 0.62,1.667 0.413,0.373 1.035,0.559 1.865,0.559 C 0.163,6.711 0.784,6.525 1.2,6.152 1.616,5.785 1.823,5.229 1.823,4.485 v -3.29 c 0,-0.992 -0.186,-1.693 -0.561,-2.098 -0.373,-0.411 -1.017,-0.615 -1.93,-0.615 -0.909,0 -1.552,0.204 -1.924,0.615"
       fill="#2c292a"
       id="path36" />
    <path
       transform="matrix(1,0,0,-1,332.2871,839.8418)"
       d="m 0,0 h 0.429 c 0.515,0 0.86,0.104 1.037,0.316 0.178,0.207 0.265,0.614 0.265,1.213 v 2.639 c 0,0.54 -0.097,0.913 -0.296,1.115 C 1.237,5.488 0.874,5.591 0.345,5.591 H 0 Z m -1.636,6.79 h 0.815 1.336 C 1.541,6.79 2.273,6.586 2.712,6.183 3.149,5.775 3.368,5.097 3.368,4.146 V 1.909 C 3.372,0.709 3.181,-0.109 2.793,-0.544 2.407,-0.983 1.676,-1.2 0.604,-1.2 h -1.425 -0.815 z"
       fill="#2c292a"
       id="path38" />
    <path
       transform="matrix(1,0,0,-1,342.7246,835.52737)"
       d="m 0,0 v 0.238 c 0.009,0.422 -0.043,0.72 -0.156,0.897 -0.115,0.171 -0.312,0.26 -0.595,0.26 -0.279,0 -0.486,-0.081 -0.627,-0.242 -0.139,-0.161 -0.207,-0.402 -0.207,-0.721 0,-0.25 0.083,-0.464 0.248,-0.641 0.162,-0.178 0.449,-0.362 0.858,-0.554 0.812,-0.384 1.378,-0.761 1.704,-1.128 0.325,-0.365 0.487,-0.815 0.487,-1.347 0,-0.799 -0.208,-1.398 -0.625,-1.796 -0.416,-0.399 -1.043,-0.599 -1.881,-0.599 -0.914,0 -1.56,0.18 -1.938,0.535 -0.379,0.358 -0.569,0.94 -0.569,1.747 v 0.076 0.235 h 1.613 v -0.235 c -0.007,-0.389 0.064,-0.676 0.212,-0.867 0.148,-0.194 0.376,-0.291 0.68,-0.291 0.298,0 0.52,0.086 0.667,0.262 0.148,0.173 0.221,0.437 0.221,0.786 0,0.26 -0.092,0.488 -0.271,0.674 -0.177,0.188 -0.488,0.388 -0.932,0.601 -0.777,0.365 -1.322,0.726 -1.63,1.082 -0.311,0.349 -0.467,0.785 -0.467,1.305 0,0.776 0.208,1.355 0.625,1.74 0.417,0.385 1.045,0.579 1.883,0.579 0.861,0 1.467,-0.182 1.821,-0.539 C 1.454,1.718 1.619,1.17 1.613,0.414 L 1.615,0.238 V 0 Z"
       fill="#2c292a"
       id="path40" />
    <path
       transform="matrix(1,0,0,-1,347.6206,838.126)"
       d="M 0,0 H 1.312 L 0.664,3.579 H 0.661 Z m -0.313,5.074 h 0.957 0.963 l 1.811,-7.99 H 2.632 1.84 l -0.319,1.728 h -1.738 l -0.328,-1.728 h -0.787 -0.794 z"
       fill="#2c292a"
       id="path42" />
    <path
       transform="matrix(1,0,0,-1,352.2173,841.042)"
       d="M 0,0 V 7.99 H 3.826 V 7.395 6.8 H 1.635 V 4.627 H 3.707 V 4.031 3.438 H 1.635 V 0 H 0.82 Z"
       fill="#2c292a"
       id="path44" />
    <path
       transform="matrix(1,0,0,-1,357.356,841.042)"
       d="M 0,0 V 7.99 H 3.993 V 7.395 6.8 H 1.637 V 4.69 H 3.914 V 4.095 3.501 H 1.637 V 1.19 H 4.041 V 0.595 0 Z"
       fill="#2c292a"
       id="path46" />
    <path
       transform="matrix(1,0,0,-1,364,834.2422)"
       d="M 0,0 H -1.721 V 0.595 1.19 H 3.357 V 0.595 0 H 1.636 V -6.8 H 0.819 0 Z"
       fill="#2c292a"
       id="path48" />
    <path
       transform="matrix(1,0,0,-1,369.8657,838.05569)"
       d="m 0,0 -1.869,5.004 h 0.87 0.878 L 0.82,1.818 V 1.82 L 1.854,5.004 H 2.67 3.493 L 1.636,0.062 V -2.986 H 0.82 0 Z"
       fill="#2c292a"
       id="path50" />
    <path
       transform="matrix(1,0,0,-1,378.835,838.126)"
       d="M 0,0 H 1.311 L 0.662,3.579 H 0.661 Z m -0.313,5.074 h 0.957 0.962 l 1.813,-7.99 H 2.632 1.839 l -0.316,1.728 h -1.74 l -0.329,-1.728 h -0.785 -0.793 z"
       fill="#2c292a"
       id="path52" />
    <path
       transform="matrix(1,0,0,-1,386.5552,835.52737)"
       d="m 0,0 v 0.238 c 0.007,0.422 -0.045,0.72 -0.157,0.897 -0.114,0.171 -0.312,0.26 -0.595,0.26 -0.278,0 -0.486,-0.081 -0.627,-0.242 -0.138,-0.161 -0.207,-0.402 -0.207,-0.721 0,-0.25 0.081,-0.464 0.248,-0.641 0.163,-0.178 0.448,-0.362 0.861,-0.554 0.808,-0.384 1.377,-0.761 1.7,-1.128 0.325,-0.365 0.487,-0.815 0.487,-1.347 0,-0.799 -0.206,-1.398 -0.624,-1.796 -0.416,-0.399 -1.043,-0.599 -1.88,-0.599 -0.913,0 -1.56,0.18 -1.94,0.535 -0.378,0.358 -0.568,0.94 -0.568,1.747 v 0.076 0.235 h 1.614 v -0.235 c -0.009,-0.389 0.062,-0.676 0.212,-0.867 0.148,-0.194 0.374,-0.291 0.679,-0.291 0.297,0 0.52,0.086 0.669,0.262 0.145,0.173 0.219,0.437 0.219,0.786 0,0.26 -0.089,0.488 -0.271,0.674 -0.176,0.188 -0.489,0.388 -0.934,0.601 -0.776,0.365 -1.319,0.726 -1.627,1.082 -0.313,0.349 -0.467,0.785 -0.467,1.305 0,0.776 0.209,1.355 0.624,1.74 0.417,0.385 1.044,0.579 1.881,0.579 0.86,0 1.47,-0.182 1.825,-0.539 C 1.453,1.718 1.617,1.17 1.613,0.414 V 0.238 0 Z"
       fill="#2c292a"
       id="path54" />
    <path
       transform="matrix(1,0,0,-1,392.7549,835.52737)"
       d="m 0,0 v 0.238 c 0.007,0.422 -0.045,0.72 -0.158,0.897 -0.113,0.171 -0.311,0.26 -0.593,0.26 -0.28,0 -0.488,-0.081 -0.628,-0.242 -0.138,-0.161 -0.209,-0.402 -0.209,-0.721 0,-0.25 0.084,-0.464 0.25,-0.641 0.163,-0.178 0.446,-0.362 0.859,-0.554 0.81,-0.384 1.378,-0.761 1.704,-1.128 0.324,-0.365 0.487,-0.815 0.487,-1.347 0,-0.799 -0.209,-1.398 -0.626,-1.796 -0.416,-0.399 -1.044,-0.599 -1.882,-0.599 -0.912,0 -1.558,0.18 -1.938,0.535 -0.378,0.358 -0.569,0.94 -0.569,1.747 v 0.076 0.235 h 1.615 v -0.235 c -0.007,-0.389 0.063,-0.676 0.211,-0.867 0.147,-0.194 0.377,-0.291 0.68,-0.291 0.297,0 0.52,0.086 0.669,0.262 0.145,0.173 0.218,0.437 0.218,0.786 0,0.26 -0.09,0.488 -0.27,0.674 -0.176,0.188 -0.487,0.388 -0.932,0.601 -0.778,0.365 -1.322,0.726 -1.63,1.082 -0.312,0.349 -0.466,0.785 -0.466,1.305 0,0.776 0.207,1.355 0.625,1.74 0.416,0.385 1.043,0.579 1.881,0.579 0.861,0 1.467,-0.182 1.822,-0.539 C 1.453,1.718 1.616,1.17 1.614,0.414 V 0.238 0 Z"
       fill="#2c292a"
       id="path56" />
    <path
       transform="matrix(1,0,0,-1,398.9443,839.6426)"
       d="m 0,0 c 0.124,0.212 0.188,0.586 0.188,1.127 v 3.288 c 0,0.359 -0.073,0.633 -0.217,0.814 -0.148,0.188 -0.36,0.281 -0.64,0.281 -0.277,0 -0.488,-0.093 -0.632,-0.281 C -1.445,5.048 -1.518,4.774 -1.518,4.415 V 1.127 c 0,-0.541 0.064,-0.915 0.189,-1.127 0.124,-0.209 0.347,-0.317 0.66,-0.317 0.322,0 0.545,0.108 0.669,0.317 m -2.592,-0.903 c -0.373,0.405 -0.56,1.106 -0.56,2.098 v 3.29 c 0,0.744 0.206,1.3 0.619,1.667 0.413,0.373 1.036,0.559 1.864,0.559 C 0.163,6.711 0.785,6.525 1.2,6.152 1.616,5.785 1.825,5.229 1.825,4.485 v -3.29 c 0,-0.992 -0.187,-1.693 -0.561,-2.098 -0.375,-0.411 -1.018,-0.615 -1.933,-0.615 -0.907,0 -1.549,0.204 -1.923,0.615"
       fill="#2c292a"
       id="path58" />
    <path
       transform="matrix(1,0,0,-1,407.0029,838.3242)"
       d="m 0,0 v -0.237 c 0.015,-0.937 -0.159,-1.602 -0.521,-2 -0.362,-0.399 -0.977,-0.599 -1.839,-0.599 -0.919,0 -1.566,0.215 -1.943,0.649 -0.373,0.434 -0.562,1.174 -0.562,2.228 v 2.462 c 0,1.062 0.189,1.808 0.562,2.241 0.377,0.431 1.024,0.649 1.943,0.649 0.795,0 1.386,-0.203 1.77,-0.608 0.362,-0.378 0.543,-0.937 0.538,-1.681 V 2.951 2.713 h -1.625 v 0.238 c 0.008,0.416 -0.047,0.726 -0.16,0.932 -0.117,0.206 -0.291,0.308 -0.523,0.308 -0.308,0 -0.527,-0.118 -0.664,-0.352 C -3.159,3.602 -3.229,3.216 -3.229,2.685 V 0.221 c 0,-0.693 0.065,-1.177 0.191,-1.448 0.127,-0.271 0.352,-0.409 0.678,-0.409 0.253,0 0.439,0.115 0.561,0.35 0.123,0.229 0.181,0.581 0.172,1.049 V 0 Z"
       fill="#2c292a"
       id="path60" />
    <path
       transform="matrix(1,0,0,-1,408.168,833.05178)"
       d="M 0,0 H 0.814 1.638 V -7.99 H 0.821 0 Z"
       fill="#2c292a"
       id="path62" />
    <path
       transform="matrix(1,0,0,-1,413.0449,838.126)"
       d="M 0,0 H 1.312 L 0.662,3.579 H 0.66 Z M -0.313,5.074 H 0.645 1.606 L 3.42,-2.916 H 2.632 1.838 l -0.315,1.728 h -1.74 l -0.329,-1.728 h -0.787 -0.792 z"
       fill="#2c292a"
       id="path64" />
    <path
       transform="matrix(1,0,0,-1,418.9482,834.2422)"
       d="M 0,0 H -1.721 V 0.595 1.19 H 3.358 V 0.595 0 H 1.638 V -6.8 H 0.821 0 Z"
       fill="#2c292a"
       id="path66" />
    <path
       transform="matrix(1,0,0,-1,423.3555,833.05178)"
       d="M 0,0 H 0.814 1.635 V -7.99 H 0.819 0 Z"
       fill="#2c292a"
       id="path68" />
    <path
       transform="matrix(1,0,0,-1,429.5254,839.6426)"
       d="M 0,0 C 0.124,0.212 0.188,0.586 0.188,1.127 V 4.415 C 0.188,4.774 0.114,5.048 -0.03,5.229 -0.176,5.417 -0.389,5.51 -0.669,5.51 -0.947,5.51 -1.159,5.417 -1.302,5.229 -1.445,5.048 -1.518,4.774 -1.518,4.415 V 1.127 c 0,-0.541 0.062,-0.915 0.187,-1.127 0.125,-0.209 0.347,-0.317 0.662,-0.317 0.322,0 0.544,0.108 0.669,0.317 m -2.592,-0.903 c -0.374,0.405 -0.56,1.106 -0.56,2.098 v 3.29 c 0,0.744 0.207,1.3 0.619,1.667 0.414,0.373 1.033,0.559 1.864,0.559 0.832,0 1.453,-0.186 1.87,-0.559 C 1.615,5.785 1.824,5.229 1.824,4.485 v -3.29 c 0,-0.992 -0.186,-1.693 -0.56,-2.098 -0.374,-0.411 -1.019,-0.615 -1.933,-0.615 -0.908,0 -1.55,0.204 -1.923,0.615"
       fill="#2c292a"
       id="path70" />
    <path
       transform="matrix(1,0,0,-1,434.2031,841.042)"
       d="m 0,0 h -0.67 -0.674 v 7.99 h 1.201 1.206 L 2.444,1.248 V 7.99 h 0.67 0.673 V 0 H 2.593 1.392 L 0,6.8 Z"
       fill="#2c292a"
       id="path72" />
    <path
       transform="matrix(1,0,0,-1,332.3154,813.7832)"
       d="m 0,0 h -12.205 v -2.049 h 9.548 v -3.408 h -11.188 v -1.994 h 6.222 v -2.007 h -4.836 v -2.051 h 9.97 v -3.511 h 2.425 v 5.562 h -5.028 v 2.007 h 6.935 v 1.959 H 0 Z"
       fill="#2c292a"
       id="path74" />
    <path
       transform="matrix(1,0,0,-1,338.4722,825.3164)"
       d="m 0,0 h 9.52 v -3.496 h 2.389 V 2.05 H 0 Z"
       fill="#2c292a"
       id="path76" />
    <path
       transform="matrix(1,0,0,-1,0,1224)"
       d="m 348.064,401.446 h 2.389 v 9.218 h -2.389 z"
       fill="#2c292a"
       id="path78" />
    <path
       transform="matrix(1,0,0,-1,341.1465,819.041)"
       d="m 0,0 c 0.487,-0.689 1.082,-1.287 1.783,-1.793 0.701,-0.505 1.385,-0.9 2.05,-1.184 L 5.277,-1.23 C 4.338,-0.935 3.438,-0.357 2.576,0.497 1.715,1.354 1.284,2.268 1.284,3.245 v 2.103 h -2.55 V 3.245 c 0,-0.977 -0.422,-1.933 -1.265,-2.871 -0.844,-0.938 -1.789,-1.634 -2.835,-2.087 l 1.712,-1.622 c 0.736,0.393 1.435,0.875 2.093,1.444 C -0.9,-1.321 -0.38,-0.689 0,0"
       fill="#2c292a"
       id="path80" />
    <path
       transform="matrix(1,0,0,-1,0,1224)"
       d="m 364.59,397.242 h -7.024 v 1.173 h 7.024 z m -11.355,4.329 h 6.542 v -1.122 h -4.635 v -5.257 h 11.873 v 5.257 h -4.653 v 1.122 h 6.559 v 2.014 h -15.686 z"
       fill="#2c292a"
       id="path82" />
    <path
       transform="matrix(1,0,0,-1,0,1224)"
       d="m 362.879,406.438 h -3.60101 v 1.907 h 3.60101 z m 4.671,0 h -2.291 v 1.908 h 1.934 v 1.961 h -12.23 v -1.961 h 1.935 v -1.908 h -2.291 v -1.979 h 12.943 z"
       fill="#2c292a"
       id="path84" />
    <path
       transform="matrix(1,0,0,-1,384.4854,813.31936)"
       d="M 0,0 H -2.371 V -11.285 H 0 v 4.974 h 2.123 v 2.194 H 0 Z"
       fill="#2c292a"
       id="path86" />
    <path
       transform="matrix(1,0,0,-1,375.6606,823.46389)"
       d="m 0,0 h -2.406 v -5.355 h 11.73 v 2.05 H 0 Z"
       fill="#2c292a"
       id="path88" />
    <path
       transform="matrix(1,0,0,-1,393.5415,819.9687)"
       d="M 0,0 C 0.394,-0.595 0.975,-1.133 1.749,-1.613 2.521,-2.096 3.126,-2.4 3.567,-2.531 l 1.301,1.837 C 3.954,-0.375 3.117,0.094 2.362,0.714 1.608,1.331 1.231,2.175 1.231,3.243 V 3.726 H 4.19 V 5.775 H -4.207 V 3.726 h 2.96 V 3.243 c 0,-1.139 -0.458,-2.085 -1.374,-2.834 -0.914,-0.748 -1.794,-1.23 -2.637,-1.444 l 1.497,-1.819 c 0.784,0.275 1.536,0.681 2.255,1.222 C -0.787,-1.091 -0.284,-0.547 0,0"
       fill="#2c292a"
       id="path90" />
    <path
       transform="matrix(1,0,0,-1,400.5488,824.6572)"
       d="M 0,0 H 2.388 V 11.338 H 0 V 7.772 H -2.746 V 5.633 H 0 Z"
       fill="#2c292a"
       id="path92" />
    <path
       transform="matrix(1,0,0,-1,393.7021,823.499)"
       d="M 0,0 H -2.388 V -5.32 H 9.575 v 2.05 H 0 Z"
       fill="#2c292a"
       id="path94" />
    <path
       transform="matrix(1,0,0,-1,0,1224)"
       d="m 309.093,410.822 h -5.331 v -1.78201 h 5.331 z"
       fill="#2c292a"
       id="path96" />
    <path
       transform="matrix(1,0,0,-1,314.9761,813.31936)"
       d="M 0,0 H -2.39 V -11.499 H 0 v 4.725 h 2.085 v 2.138 H 0 Z"
       fill="#2c292a"
       id="path98" />
    <path
       transform="matrix(1,0,0,-1,306.2227,824.4883)"
       d="M 0,0 H -2.567 V -4.331 H 9.234 v 1.96 H 0 Z"
       fill="#2c292a"
       id="path100" />
    <path
       transform="matrix(1,0,0,-1,304.5254,819.833)"
       d="M 0,0 C 0,1.179 0.886,2.133 1.98,2.133 3.072,2.133 3.959,1.179 3.959,0 3.959,-1.176 3.072,-2.129 1.98,-2.129 0.886,-2.129 0,-1.176 0,0 m 6.324,0.014 c 0,0.834 -0.265,1.609 -0.718,2.257 H 6.885 V 4.124 H -3.027 V 2.271 h 1.402 C -2.078,1.623 -2.344,0.848 -2.344,0.014 c 0,-2.262 1.94,-4.096 4.334,-4.096 2.395,0 4.334,1.834 4.334,4.096"
       fill="#2c292a"
       id="path102" />
    <path
       transform="matrix(1,0,0,-1,373.355,817.9395)"
       d="M 0,0 C 0,1.166 0.972,2.114 2.171,2.114 3.371,2.114 4.342,1.166 4.342,0 4.342,-1.169 3.371,-2.114 2.171,-2.114 0.972,-2.114 0,-1.169 0,0 m 6.75,0.014 c 0,2.384 -2.045,4.315 -4.567,4.315 -2.523,0 -4.567,-1.931 -4.567,-4.315 0,-2.385 2.044,-4.317 4.567,-4.317 2.522,0 4.567,1.932 4.567,4.317"
       fill="#2c292a"
       id="path104" />
    <path
       transform="matrix(1,0,0,-1,0,1224)"
       d="m 412.886,410.822 h -5.13401 v -1.71 h 5.13401 z"
       fill="#2c292a"
       id="path106" />
    <path
       transform="matrix(1,0,0,-1,0,1224)"
       d="m 417.271,397.011 h -6.757 v 1.049 h 6.757 z m 0,2.814 h -6.756 v 1.103 h -2.479 v -5.736 h 11.713 v 5.736 h -2.478 z"
       fill="#2c292a"
       id="path108" />
    <path
       transform="matrix(1,0,0,-1,417.4316,816.2256)"
       d="M 0,0 H -2.086 V -1.961 H 0 V -3.19 H -2.089 V -5.134 H 0 V -6.169 H 2.371 V 2.906 H 0 Z"
       fill="#2c292a"
       id="path110" />
    <path
       transform="matrix(1,0,0,-1,408.7285,819.0703)"
       d="M 0,0 C 0,0.845 0.743,1.527 1.66,1.527 2.577,1.527 3.321,0.845 3.321,0 3.321,-0.842 2.577,-1.526 1.66,-1.526 0.743,-1.526 0,-0.842 0,0 m 5.507,0.014 c 0,0.631 -0.201,1.215 -0.532,1.725 H 6.456 V 3.488 H -3.241 V 1.739 h 1.608 c -0.329,-0.51 -0.532,-1.094 -0.532,-1.725 0,-1.908 1.717,-3.454 3.837,-3.454 2.117,0 3.835,1.546 3.835,3.454"
       fill="#2c292a"
       id="path112" />
    <path
       transform="matrix(1,0,0,-1,0,1224)"
       d="m 431.426,410.342 h -5.205 v -1.81797 h 5.205 z"
       fill="#2c292a"
       id="path114" />
    <path
       transform="matrix(1,0,0,-1,0,1224)"
       d="m 435.046,395.182 h 2.371 v 15.499 h -2.371 z"
       fill="#2c292a"
       id="path116" />
    <path
       transform="matrix(1,0,0,-1,428.9512,821.873)"
       d="m 0,0 c -0.964,0 -1.745,0.793 -1.745,1.77 0,0.976 0.781,1.768 1.745,1.768 0.963,0 1.743,-0.792 1.743,-1.768 C 1.743,0.793 0.963,0 0,0 m 1.28,-1.819 c 1.601,0.503 2.757,1.923 2.757,3.602 0,0.701 -0.205,1.359 -0.558,1.921 H 4.704 V 5.595 H -4.924 V 3.704 h 1.463 c -0.352,-0.562 -0.558,-1.22 -0.558,-1.921 0,-1.679 1.153,-3.096 2.751,-3.601 V -2.945 H -5.707 V -5.03 H 5.53 l 0.012,0.008 V -2.74 H 1.28 Z"
       fill="#2c292a"
       id="path118" />
    <path
       transform="matrix(1,0,0,-1,285.8345,813.31936)"
       d="M 0,0 H -1.117 V -7.236 H 0 v 3.303 h 1.041 v 1.05 H 0 Z"
       fill="#2c292a"
       id="path120" />
    <path
       transform="matrix(1,0,0,-1,280.9766,818.6074)"
       d="M 0,0 C 0.361,0.35 0.625,0.726 0.792,1.124 0.997,0.726 1.278,0.365 1.633,0.045 1.988,-0.275 2.319,-0.52 2.624,-0.692 L 3.291,0.091 C 2.919,0.297 2.505,0.642 2.049,1.128 1.594,1.615 1.367,2.31 1.367,3.215 V 4.949 H 0.183 V 3.215 C 0.183,2.31 -0.039,1.599 -0.483,1.078 -0.927,0.56 -1.364,0.186 -1.791,-0.042 l 0.824,-0.726 C -0.684,-0.605 -0.361,-0.351 0,0"
       fill="#2c292a"
       id="path122" />
    <path
       transform="matrix(1,0,0,-1,292.2915,816.51858)"
       d="m 0,0 h -3.316 v 1.895 h 2.708 V 2.86 H -4.424 V -0.966 H 0 Z"
       fill="#2c292a"
       id="path124" />
    <path
       transform="matrix(1,0,0,-1,294.1245,819.60549)"
       d="M 0,0 H -4.341 V 1.523 H -5.465 V -0.958 H 0 Z"
       fill="#2c292a"
       id="path126" />
    <path
       transform="matrix(1,0,0,-1,293.9077,813.31936)"
       d="M 0,0 H -1.107 V -5.3 H 0 v 2.2 h 1 v 0.976 H 0 Z"
       fill="#2c292a"
       id="path128" />
    <path
       transform="matrix(1,0,0,-1,0,1224)"
       d="m 284.673,395.848 h -3.167 v 0.558 h 3.167 z m 0,1.45 h -3.166 v 0.634 h -1.117 v -2.992 h 5.399 v 2.992 h -1.116 z"
       fill="#2c292a"
       id="path130" />
    <path
       transform="matrix(1,0,0,-1,0,1224)"
       d="m 282.231,399.337 h -1.58301 v 0.71703 h 1.58301 z m 2.475,1.408 h -1.375 v 1.175 h -1.1 v -0.923 h -1.582 v 0.923 h -1.109 v -3.524 h 3.791 v 1.391 h 1.375 v -1.55 h 1.107 v 3.942 h -1.107 z"
       fill="#2c292a"
       id="path132" />
    <path
       transform="matrix(1,0,0,-1,289.7632,826.623)"
       d="M 0,0 H -1.133 V -2.433 H 4.5 v 0.958 H 0 Z"
       fill="#2c292a"
       id="path134" />
    <path
       transform="matrix(1,0,0,-1,0,1224)"
       d="m 294.063,402.179 h -1.108 v -5.291 h 1.108 z"
       fill="#2c292a"
       id="path136" />
    <path
       transform="matrix(1,0,0,-1,288.6479,823.9951)"
       d="M 0,0 C 0,0.551 0.46,0.993 1.03,0.993 1.599,0.993 2.06,0.551 2.06,0 2.06,-0.548 1.599,-0.992 1.03,-0.992 0.46,-0.992 0,-0.548 0,0 m 3.18,0.007 c 0,1.12 -0.96,2.026 -2.145,2.026 -1.184,0 -2.145,-0.906 -2.145,-2.026 0,-1.119 0.961,-2.026 2.145,-2.026 1.185,0 2.145,0.907 2.145,2.026"
       fill="#2c292a"
       id="path138" />
  </g>
</svg>
