<?xml version="1.0" encoding="UTF-8" standalone="no"?>
<svg
   version="1.1"
   viewBox="0 0 301.08447 128.68878"
   xml:space="preserve"
   id="svg323"
   sodipodi:docname="signature.svg"
   inkscape:version="1.1 (c68e22c387, 2021-05-23)"
   width="301.08447"
   height="128.68878"
   xmlns:inkscape="http://www.inkscape.org/namespaces/inkscape"
   xmlns:sodipodi="http://sodipodi.sourceforge.net/DTD/sodipodi-0.dtd"
   xmlns="http://www.w3.org/2000/svg"
   xmlns:svg="http://www.w3.org/2000/svg"><defs
   id="defs327">
            
    </defs><sodipodi:namedview
   id="namedview325"
   pagecolor="#ffffff"
   bordercolor="#666666"
   borderopacity="1.0"
   inkscape:pageshadow="2"
   inkscape:pageopacity="0.0"
   inkscape:pagecheckerboard="0"
   showgrid="false"
   inkscape:zoom="0.49571078"
   inkscape:cx="110.95179"
   inkscape:cy="814.99135"
   inkscape:window-width="1332"
   inkscape:window-height="1040"
   inkscape:window-x="1745"
   inkscape:window-y="44"
   inkscape:window-maximized="0"
   inkscape:current-layer="g319" />
    <g
   clip-path="url(#clipPath22)"
   id="g319"
   transform="matrix(1.3333,0,0,-1.3333,0,1632)">
                <g
   transform="translate(62.895,1163.2176)"
   id="g171">
                    <path
   d="M 0,0 -5.702,8.276 C -12.987,7.547 -19.724,7.034 -26.071,6.65 L -22.362,0 Z"
   fill="#ed1c24"
   id="path169" />
                </g>
                <g
   transform="translate(133.525,1184.3376)"
   id="g175">
                    <path
   d="M 0,0 C 0.759,-0.672 1.339,-1.291 1.743,-1.854 2.151,-2.419 2.428,-2.93 2.571,-3.379 2.716,-3.827 2.79,-4.3 2.79,-4.794 c 0,-1.454 -0.749,-2.55 -2.251,-3.288 -1.495,-0.74 -3.514,-1.111 -6.039,-1.111 -1.917,0 -4.364,0.213 -6.911,0.779 -2.549,0.568 -5.233,1.646 -8.493,3.098 0.497,-3.719 0.928,-8.669 1.307,-14.853 7.17,-1.364 13.11,-2.046 17.816,-2.046 3.044,0 5.942,0.305 8.687,0.913 2.743,0.613 5.263,1.678 7.556,3.2 2.294,1.528 4.066,3.474 5.314,5.842 1.248,2.363 1.872,4.853 1.872,7.466 0,1.016 -0.1,1.969 -0.303,2.851 -0.205,0.888 -0.518,1.762 -0.938,2.637 -0.422,0.87 -1.025,1.827 -1.808,2.871 C 17.815,4.612 16.887,5.672 15.813,6.748 15.755,6.805 15.698,6.86 15.64,6.92 10.022,4.845 4.313,2.961 -1.44,1.251 Z"
   fill="#00a650"
   id="path173" />
                </g>
                <g
   transform="translate(182.945,1191.0276)"
   id="g179">
                    <path
   d="M 0,0 3.129,6.437 C 4.461,9.162 6.082,12.654 7.998,16.911 8.32,15.865 10.163,10.231 13.523,0 Z M 20.209,30.158 C 9.738,20.732 1.813,16.125 -12.841,9.182 l -17.269,-32.485 -3.615,-6.269 c 4.907,0.057 8.473,0.088 10.688,0.088 1.217,0 4.527,-0.031 9.934,-0.088 2.691,6.155 5.31,11.787 7.832,16.896 h 21.922 c 2.412,-6.474 4.253,-12.106 5.523,-16.896 4.742,0.057 8.328,0.088 10.765,0.088 1.081,0 4.129,-0.031 9.162,-0.088 l -2.526,6.358 -12.501,34.97 -6.86,18.402 z"
   fill="#1c63b7"
   id="path177" />
                </g>
                <g
   transform="translate(19.414,1163.2076)"
   id="g183">
                    <path
   d="M 0,0 0.107,2.813 H 0.112 L 0.231,5.882 C -8.331,5.641 -14.933,5.668 -18.857,5.731 -19.021,3.951 -19.205,2.044 -19.413,0 Z"
   fill="#ed1c24"
   id="path181" />
                </g>
                <g
   transform="translate(84.755,1163.2076)"
   id="g187">
                    <path
   d="m 0,0 v 1.915 l 0.046,5.836 0.117,4.105 C -6.282,10.827 -12.593,9.966 -18.69,9.249 -18.919,6.572 -19.214,3.49 -19.572,0 Z"
   fill="#fab20b"
   id="path185" />
                </g>
                <g
   transform="translate(57.215,1171.4976)"
   id="g191">
                    <path
   d="m 0,0 -15.72,23.51 3.41,4.629 18.385,23.193 c -0.021,0 -0.037,0 -0.054,-10e-4 l 0.054,0.067 c -6.416,-0.056 -9.887,-0.085 -10.41,-0.085 -1.914,0 -5.576,0.029 -10.975,0.085 l -2.441,-3.739 -7.88,-11.057 -9.759,-13.269 c 0.008,-0.013 0.018,-0.027 0.024,-0.036 l -0.024,-0.033 c 6.299,-10.121 11.288,-18.419 14.983,-24.912 6.308,0.384 13.152,0.912 20.386,1.635 z"
   fill="#231f20"
   id="path189" />
                </g>
                <g
   transform="translate(149.145,1191.2776)"
   id="g195">
                    <path
   d="m 0,0 c -1.076,1.075 -2.077,1.987 -3.008,2.743 l -3.133,2.484 c -2.238,1.741 -3.875,3.055 -4.924,3.942 -1.044,0.885 -1.886,1.698 -2.527,2.439 -0.638,0.738 -1.073,1.384 -1.303,1.937 -0.225,0.536 -0.343,1.09 -0.347,1.656 0.012,1.237 0.756,2.274 2.237,3.111 1.496,0.839 3.376,1.26 5.642,1.26 1.597,0 3.5,-0.209 5.705,-0.63 2.21,-0.421 4.646,-1.17 7.32,-2.242 -0.004,0.024 -0.006,0.047 -0.008,0.07 0.002,0 0.004,0 0.008,-0.002 -0.439,4.18 -0.711,7.105 -0.83,8.774 -0.117,1.669 -0.219,3.508 -0.305,5.511 -5.777,1.134 -11.123,1.7 -16.029,1.7 -2.494,0 -4.92,-0.199 -7.27,-0.59 -2.351,-0.393 -4.563,-1.123 -6.622,-2.199 -2.061,-1.076 -3.715,-2.354 -4.965,-3.831 -1.25,-1.486 -2.186,-3.074 -2.811,-4.773 -0.623,-1.699 -0.932,-3.431 -0.932,-5.204 v -0.068 c 0,-1.479 0.194,-2.881 0.585,-4.2 0.396,-1.323 1.021,-2.621 1.882,-3.9 0.855,-1.279 2.059,-2.657 3.598,-4.137 0.755,-0.725 2.09,-1.904 4.014,-3.53 l 4.73,-4.11 c 0.018,0.005 0.037,0.011 0.056,0.015 l 2.195,-1.907 c 5.682,1.694 11.5,3.633 17.046,5.681 z"
   fill="#231f20"
   id="path193" />
                </g>
                <g
   transform="translate(180.685,1221.1876)"
   id="g199">
                    <path
   d="M 0,0 H 22.473 V -0.004 C 9.352,-11.687 1.947,-15.282 -10.588,-20.987 v -0.004 l 10.545,20.872 z"
   fill="#231f20"
   id="path197" />
                </g>
                <g
   transform="translate(0.556,1168.9276)"
   id="g203">
                    <path
   d="m 0,0 c 3.921,-0.062 10.519,-0.092 19.077,0.149 l 0.822,21.215 2.061,32.534 h -0.004 l 0.004,0.067 c -5.048,-0.057 -8.18,-0.086 -9.399,-0.086 -1.82,0 -5.158,0.029 -10.007,0.086 V 50.221 C 2.554,47.082 2.378,41.685 2.03,34.02 1.534,23.016 0.491,6.595 0.056,0.267 Z"
   fill="#231f20"
   id="path201" />
                </g>
                <g
   transform="translate(66.035,1172.4476)"
   id="g207">
                    <path
   d="m 0,0 c 6.097,0.721 12.402,1.581 18.849,2.606 l 0.047,1.689 h 0.003 l 0.294,10.069 c 4.516,0.146 8.696,0.218 12.514,0.218 2.266,0 5.729,-0.072 10.397,-0.218 0,3.109 0.157,7.404 0.476,12.892 h -10e-4 c 0,0.022 0,0.046 10e-4,0.067 -4.178,-0.087 -7.289,-0.13 -9.318,-0.13 h -7.055 l -6.312,0.13 0.386,10.081 c 4.791,0.058 7.678,0.086 8.668,0.086 h 8.58 l 3.049,-0.044 3.047,-0.042 3.789,-0.131 c 0,2.062 0.235,6.432 0.697,13.109 h -0.006 c 0,0.021 0.004,0.043 0.006,0.066 -6.996,-0.056 -14.283,-0.086 -21.862,-0.086 -7.522,0 -15.654,0.03 -24.388,0.086 V 45.66 C 1.861,42.468 1.697,36.244 1.382,26.999 1.059,17.751 0.413,5.26 0.064,-0.025 Z"
   fill="#231f20"
   id="path205" />
                </g>
                <g
   transform="translate(75.825,1149.3076)"
   id="g211">
                    <path
   d="m 0,0 h -17.418 v -2.925 h 13.627 v -4.863 h -15.968 v -2.847 h 8.88 v -2.864 h -6.902 v -2.926 h 14.229 v -5.01 h 3.461 v 7.936 h -7.176 v 2.864 H 2.63 v 2.796 H 0 Z"
   fill="#231f20"
   id="path209" />
                </g>
                <g
   transform="translate(84.615,1132.8476)"
   id="g215">
                    <path
   d="m 0,0 h 13.586 v -4.99 h 3.41 V 2.926 H 0 Z"
   fill="#231f20"
   id="path213" />
                </g>
                <path
   d="m 98.305,1136.7976 h 3.41 v 13.154 h -3.41 z"
   fill="#231f20"
   id="path217" />
                <g
   transform="translate(88.425,1141.8076)"
   id="g221">
                    <path
   d="m 0,0 c 0.695,-0.983 1.543,-1.836 2.544,-2.557 1.001,-0.721 1.977,-1.285 2.927,-1.691 l 2.06,2.493 C 6.191,-1.331 4.906,-0.509 3.676,0.712 2.447,1.935 1.833,3.239 1.833,4.632 v 3.001 h -3.64 V 4.632 c 0,-1.393 -0.601,-2.758 -1.806,-4.097 -1.204,-1.341 -2.553,-2.332 -4.045,-2.977 l 2.443,-2.316 c 1.05,0.56 2.048,1.248 2.988,2.062 C -1.285,-1.883 -0.543,-0.983 0,0"
   fill="#231f20"
   id="path219" />
                </g>
                <path
   d="M 121.885,1130.7976 H 111.86 v 1.675 h 10.025 z m -16.207,6.178 h 9.337 v -1.602 H 108.4 v -7.502 h 16.945 v 7.502 h -6.64 v 1.602 h 9.362 v 2.875 h -22.389 z"
   fill="#231f20"
   id="path223" />
                <path
   d="m 119.445,1143.9176 h -5.14 v 2.723 h 5.14 z m 6.666,0 h -3.269 v 2.723 h 2.76 v 2.797 h -17.453 v -2.797 h 2.76 v -2.723 h -3.269 v -2.825 h 18.471 z"
   fill="#231f20"
   id="path225" />
                <g
   transform="translate(150.285,1149.9776)"
   id="g229">
                    <path
   d="M 0,0 H -3.383 V -16.105 H 0 v 7.097 h 3.028 v 3.13 H 0 Z"
   fill="#231f20"
   id="path227" />
                </g>
                <g
   transform="translate(137.685,1135.4976)"
   id="g233">
                    <path
   d="m 0,0 h -3.434 v -7.644 h 16.741 v 2.927 H 0 Z"
   fill="#231f20"
   id="path231" />
                </g>
                <g
   transform="translate(163.205,1140.4876)"
   id="g237">
                    <path
   d="m 0,0 c 0.56,-0.849 1.391,-1.616 2.494,-2.303 1.103,-0.687 1.967,-1.123 2.595,-1.31 l 1.857,2.621 C 5.64,-0.535 4.448,0.135 3.372,1.018 2.294,1.899 1.756,3.104 1.756,4.63 V 5.317 H 5.979 V 8.243 H -6.004 V 5.317 h 4.223 V 4.63 c 0,-1.627 -0.653,-2.977 -1.959,-4.046 -1.306,-1.067 -2.561,-1.755 -3.765,-2.061 l 2.137,-2.594 c 1.119,0.389 2.192,0.969 3.218,1.743 C -1.124,-1.557 -0.407,-0.781 0,0"
   fill="#231f20"
   id="path235" />
                </g>
                <g
   transform="translate(173.205,1133.7876)"
   id="g241">
                    <path
   d="M 0,0 H 3.41 V 16.182 H 0 V 11.093 H -3.918 V 8.039 H 0 Z"
   fill="#231f20"
   id="path239" />
                </g>
                <g
   transform="translate(163.435,1135.4476)"
   id="g245">
                    <path
   d="m 0,0 h -3.41 v -7.593 h 17.073 v 2.927 H 0 Z"
   fill="#231f20"
   id="path243" />
                </g>
                <path
   d="m 42.685,1150.1776 h -7.608 v -2.544 h 7.608 z"
   fill="#231f20"
   id="path247" />
                <g
   transform="translate(51.075,1149.9776)"
   id="g251">
                    <path
   d="M 0,0 H -3.41 V -16.412 H 0 v 6.744 h 2.977 v 3.052 H 0 Z"
   fill="#231f20"
   id="path249" />
                </g>
                <g
   transform="translate(38.585,1134.0376)"
   id="g255">
                    <path
   d="m 0,0 h -3.664 v -6.184 h 16.843 v 2.799 H 0 Z"
   fill="#231f20"
   id="path253" />
                </g>
                <g
   transform="translate(36.165,1140.6776)"
   id="g259">
                    <path
   d="M 0,0 C 0,1.683 1.265,3.043 2.826,3.043 4.386,3.043 5.65,1.683 5.65,0 5.65,-1.678 4.386,-3.037 2.826,-3.037 1.265,-3.037 0,-1.678 0,0 M 9.026,0.02 C 9.026,1.21 8.648,2.317 8,3.241 H 9.826 V 5.887 H -4.32 V 3.241 h 2.001 C -2.966,2.317 -3.345,1.21 -3.345,0.02 c 0,-3.229 2.769,-5.846 6.186,-5.846 3.416,0 6.185,2.617 6.185,5.846"
   fill="#231f20"
   id="path257" />
                </g>
                <g
   transform="translate(134.395,1143.3776)"
   id="g263">
                    <path
   d="M 0,0 C 0,1.667 1.387,3.019 3.099,3.019 4.811,3.019 6.198,1.667 6.198,0 6.198,-1.667 4.811,-3.018 3.099,-3.018 1.387,-3.018 0,-1.667 0,0 m 9.633,0.021 c 0,3.402 -2.918,6.159 -6.518,6.159 -3.6,0 -6.518,-2.757 -6.518,-6.159 0,-3.403 2.918,-6.161 6.518,-6.161 3.6,0 6.518,2.758 6.518,6.161"
   fill="#231f20"
   id="path261" />
                </g>
                <path
   d="m 190.815,1150.1776 h -7.328 v -2.442 h 7.328 z"
   fill="#231f20"
   id="path265" />
                <path
   d="m 197.075,1130.4676 h -9.643 v 1.497 h 9.643 z m 0,4.016 h -9.643 v 1.577 h -3.536 v -8.188 h 16.716 v 8.188 h -3.537 z"
   fill="#231f20"
   id="path267" />
                <g
   transform="translate(197.305,1145.8276)"
   id="g271">
                    <path
   d="M 0,0 H -2.977 V -2.799 H 0 V -4.554 H -2.981 V -7.328 H 0 V -8.804 H 3.383 V 4.147 H 0 Z"
   fill="#231f20"
   id="path269" />
                </g>
                <g
   transform="translate(184.875,1141.7676)"
   id="g275">
                    <path
   d="M 0,0 C 0,1.205 1.061,2.18 2.37,2.18 3.679,2.18 4.741,1.205 4.741,0 4.741,-1.202 3.679,-2.179 2.37,-2.179 1.061,-2.179 0,-1.202 0,0 m 7.86,0.019 c 0,0.902 -0.289,1.737 -0.759,2.463 H 9.215 V 4.977 H -4.625 V 2.482 H -2.33 C -2.8,1.756 -3.089,0.921 -3.089,0.019 c 0,-2.723 2.45,-4.928 5.475,-4.928 3.023,0 5.474,2.205 5.474,4.928"
   fill="#231f20"
   id="path273" />
                </g>
                <path
   d="m 217.275,1149.4876 h -7.43 v -2.595 h 7.43 z"
   fill="#231f20"
   id="path277" />
                <path
   d="m 222.435,1127.8576 h 3.384 v 22.12 h -3.384 z"
   fill="#231f20"
   id="path279" />
                <g
   transform="translate(213.735,1137.7676)"
   id="g283">
                    <path
   d="m 0,0 c -1.375,0 -2.49,1.131 -2.49,2.523 0,1.395 1.115,2.525 2.49,2.525 1.375,0 2.488,-1.13 2.488,-2.525 C 2.488,1.131 1.375,0 0,0 m 1.829,-2.598 c 2.285,0.717 3.934,2.744 3.934,5.141 0,1.002 -0.294,1.938 -0.797,2.743 H 6.714 V 7.983 H -7.025 V 5.286 h 2.087 C -5.441,4.481 -5.734,3.545 -5.734,2.543 c 0,-2.394 1.645,-4.419 3.925,-5.139 v -1.609 h -6.336 v -2.977 h 16.04 l 0.015,0.014 v 3.257 H 1.829 Z"
   fill="#231f20"
   id="path281" />
                </g>
                <g
   transform="translate(9.4900002,1149.9776)"
   id="g287">
                    <path
   d="M 0,0 H -1.594 V -10.328 H 0 v 4.716 h 1.486 v 1.498 H 0 Z"
   fill="#231f20"
   id="path285" />
                </g>
                <g
   transform="translate(2.557,1142.4276)"
   id="g291">
                    <path
   d="M 0,0 C 0.515,0.499 0.892,1.035 1.13,1.605 1.423,1.035 1.823,0.521 2.331,0.064 2.837,-0.392 3.31,-0.742 3.745,-0.987 L 4.697,0.131 C 4.166,0.423 3.575,0.917 2.925,1.61 2.275,2.305 1.95,3.297 1.95,4.589 V 7.063 H 0.262 V 4.589 c 0,-1.292 -0.318,-2.308 -0.951,-3.05 -0.635,-0.74 -1.257,-1.273 -1.868,-1.599 l 1.178,-1.035 C -0.975,-0.864 -0.515,-0.5 0,0"
   fill="#231f20"
   id="path289" />
                </g>
                <g
   transform="translate(18.706,1145.4076)"
   id="g295">
                    <path
   d="m 0,0 h -4.732 v 2.704 h 3.864 V 4.083 H -6.314 V -1.378 H 0 Z"
   fill="#231f20"
   id="path293" />
                </g>
                <g
   transform="translate(21.321,1140.9976)"
   id="g299">
                    <path
   d="M 0,0 H -6.195 V 2.174 H -7.8 V -1.368 H 0 Z"
   fill="#231f20"
   id="path297" />
                </g>
                <g
   transform="translate(21.012,1149.9776)"
   id="g303">
                    <path
   d="M 0,0 H -1.582 V -7.563 H 0 v 3.138 h 1.427 v 1.393 H 0 Z"
   fill="#231f20"
   id="path301" />
                </g>
                <path
   d="M 7.8330002,1128.8076 H 3.314 v 0.796 h 4.5190002 z m 0,2.069 H 3.314 v 0.903 H 1.72 v -4.268 h 7.7050002 v 4.268 h -1.592 z"
   fill="#231f20"
   id="path305" />
                <path
   d="M 4.348,1133.7876 H 2.089 v 1.022 h 2.259 z m 3.5320002,2.009 h -1.962 v 1.677 H 4.348 v -1.32 H 2.089 v 1.32 H 0.507 v -5.031 h 5.4110002 v 1.987 h 1.962 v -2.213 h 1.581 v 5.625 h -1.581 z"
   fill="#231f20"
   id="path307" />
                <g
   transform="translate(15.098,1130.9876)"
   id="g311">
                    <path
   d="m 0,0 h -1.617 v -3.473 h 8.038 v 1.368 H 0 Z"
   fill="#231f20"
   id="path309" />
                </g>
                <path
   d="m 21.234,1137.8376 h -1.582 v -7.551 h 1.582 z"
   fill="#231f20"
   id="path313" />
                <g
   transform="translate(13.505,1134.7376)"
   id="g317">
                    <path
   d="M 0,0 C 0,0.784 0.658,1.418 1.47,1.418 2.282,1.418 2.94,0.784 2.94,0 2.94,-0.783 2.282,-1.416 1.47,-1.416 0.658,-1.416 0,-0.783 0,0 m 4.539,0.01 c 0,1.597 -1.371,2.892 -3.062,2.892 -1.69,0 -3.06,-1.295 -3.06,-2.892 0,-1.598 1.37,-2.893 3.06,-2.893 1.691,0 3.062,1.295 3.062,2.893"
   fill="#231f20"
   id="path315" />
                </g>
            </g>
</svg>
